<svg width="142" height="57" viewBox="0 0 142 57" fill="none" xmlns="http://www.w3.org/2000/svg">
<path d="M127.53 20.1345C127.544 19.8367 127.559 19.5248 127.559 19.1987C127.559 17.9084 127.317 16.7032 126.82 15.5688C126.323 14.4345 125.656 13.442 124.804 12.577C123.952 11.7263 122.944 11.0457 121.793 10.5353C120.643 10.0248 119.422 9.76958 118.13 9.76958H100.493V0.964355H118.116C120.657 0.964355 123.043 1.44644 125.258 2.39644C127.473 3.36062 129.419 4.65092 131.08 6.2957C132.742 7.94048 134.048 9.86883 135.014 12.0808C135.979 14.2927 136.448 16.6606 136.448 19.1703C136.448 20.7017 136.448 22.1905 136.448 23.6935C136.448 25.1397 136.448 26.1039 136.448 27.7912L127.374 20.9853C127.459 20.7158 127.516 20.4323 127.53 20.1345Z" fill="#269CF3"/>
<path d="M14.484 36.8374C14.4698 37.1352 14.4556 37.4471 14.4556 37.7874C14.4556 39.0777 14.697 40.2971 15.194 41.4314C15.691 42.5658 16.3584 43.5725 17.2246 44.4232C18.0766 45.274 19.0848 45.9546 20.235 46.465C21.3852 46.9755 22.6206 47.2307 23.8986 47.2307H41.5492V56.0359H23.9128C21.3568 56.0359 18.9712 55.5538 16.756 54.6038C14.5408 53.6396 12.5954 52.3352 10.9198 50.6904C9.25845 49.0456 7.93785 47.1031 6.98645 44.8911C6.02085 42.6792 5.55225 40.3113 5.55225 37.7874C5.55225 36.2561 5.55225 34.8381 5.55225 33.3352C5.55225 31.8889 5.55225 30.6411 5.55225 29.1665L14.6402 36.0008C14.555 36.2561 14.4982 36.5396 14.484 36.8374Z" fill="#269CF3"/>
<path d="M101.814 33.8456C101.473 34.0866 101.076 34.2709 100.621 34.3986C100.053 34.5545 99.5704 34.6254 99.1728 34.6396C98.8604 34.6396 98.5764 34.6112 98.3066 34.5545C98.0368 34.4836 97.7954 34.3702 97.5824 34.1859C97.3694 34.0015 97.1848 33.7463 97.057 33.4202C96.915 33.0941 96.844 32.6687 96.844 32.1582L96.6878 22.8851H101.814V18.2911H96.6878V12.3926C96.5742 12.3926 96.4606 12.3926 96.3612 12.3926C95.85 12.3926 95.353 12.3926 94.8418 12.3926C94.501 14.5194 93.8336 16.2493 92.8396 17.6105C91.8456 18.9717 90.525 20.0068 88.892 20.7157V22.8568H91.59L91.6326 31.8747C91.661 33.1508 91.8882 34.2426 92.1296 35.1784C92.371 36.1142 92.7402 36.8799 93.2514 37.4896C93.7626 38.0993 94.4158 38.5388 95.2536 38.8083C96.0772 39.0918 97.0996 39.2194 98.2924 39.1911C98.974 39.1769 99.6556 39.0777 100.337 38.9075C100.877 38.7657 101.374 38.5672 101.814 38.3262C101.814 37.0217 101.814 35.065 101.814 33.8456Z" fill="#269CF3"/>
<path d="M62.9344 28.3155C62.9628 29.8468 62.7072 31.2647 62.1676 32.5692C61.628 33.8737 60.8754 35.0222 59.8956 35.9864C58.93 36.9506 57.7798 37.7304 56.4592 38.2976C55.1386 38.8647 53.7328 39.1767 52.2276 39.205C50.7224 39.2334 49.3166 38.9782 47.9818 38.4535C46.6612 37.9289 45.4968 37.1916 44.4886 36.2416C43.4804 35.2916 42.6852 34.1856 42.103 32.8812C41.5208 31.5909 41.2084 30.1871 41.18 28.6983C41.1516 27.2237 41.4214 25.82 41.9752 24.5155C42.529 23.1968 43.2958 22.0483 44.2614 21.0558C45.227 20.0632 46.363 19.2834 47.6694 18.7021C48.9758 18.1349 50.3674 17.8229 51.8442 17.8088C53.3494 17.7804 54.7694 18.0356 56.1042 18.5603C57.439 19.0849 58.6176 19.8222 59.6116 20.758C60.6198 21.6938 61.415 22.814 61.9972 24.1185C62.5936 25.4088 62.906 26.8125 62.9344 28.3155ZM57.8508 28.4006C57.8366 27.5356 57.6662 26.7274 57.3538 25.9759C57.0414 25.2244 56.6154 24.5864 56.0758 24.0334C55.5362 23.4804 54.9114 23.055 54.2156 22.7431C53.5056 22.4453 52.753 22.2894 51.9578 22.3035C51.1626 22.3177 50.41 22.4879 49.7142 22.814C49.0184 23.1401 48.4078 23.5938 47.8966 24.161C47.3854 24.7282 46.9736 25.3946 46.6896 26.1461C46.3914 26.8976 46.2636 27.72 46.2778 28.5849C46.292 29.4498 46.4624 30.258 46.7748 31.0095C47.0872 31.761 47.5132 32.3991 48.0528 32.9521C48.5924 33.505 49.2172 33.9304 49.9272 34.2424C50.6372 34.5543 51.3898 34.6961 52.185 34.6819C52.9802 34.6677 53.7328 34.4976 54.4286 34.1715C55.1244 33.8453 55.735 33.3916 56.2462 32.8244C56.7574 32.2573 57.1692 31.5909 57.4532 30.8394C57.7372 30.0879 57.8792 29.2655 57.8508 28.4006Z" fill="#269CF3"/>
<path d="M86.7762 28.3155C86.7478 26.8125 86.4496 25.4088 85.8532 24.1043C85.271 22.7998 84.4758 21.6797 83.4676 20.7439C82.4594 19.808 81.295 19.0849 79.9602 18.5461C78.6254 18.0215 77.2054 17.7663 75.7002 17.7946C74.2234 17.823 72.8318 18.1207 71.5254 18.6879C70.219 19.2692 69.083 20.0491 68.1174 21.0416C67.1518 22.0342 66.385 23.1827 65.8312 24.5013C65.2774 25.8058 65.0218 27.2095 65.036 28.6842C65.0644 30.1871 65.3626 31.5767 65.959 32.867C66.5412 34.1573 67.3364 35.2774 68.3446 36.2274C69.3528 37.1774 70.5172 37.9148 71.8378 38.4394C73.1584 38.964 74.5784 39.2192 76.0836 39.1909C77.5888 39.1625 78.9946 38.8648 80.3152 38.2834C81.6358 37.7163 82.7718 36.9364 83.7516 35.9722C84.7172 35.008 85.484 33.8595 86.0236 32.5551C86.5348 31.2506 86.8046 29.8327 86.7762 28.3155ZM81.2808 30.8394C80.9826 31.5909 80.585 32.2573 80.0738 32.8245C79.5626 33.3916 78.952 33.8454 78.2562 34.1715C77.5604 34.4976 76.8078 34.6677 76.0126 34.6819C75.2174 34.6961 74.4648 34.5543 73.7548 34.2424C73.0448 33.9446 72.42 33.5051 71.8946 32.9521C71.355 32.3991 70.929 31.7468 70.6166 31.0095C70.3042 30.258 70.1338 29.464 70.1196 28.5849C70.1054 27.72 70.2474 26.9118 70.5314 26.1461C70.8296 25.3946 71.2272 24.7282 71.7384 24.161C72.2496 23.5939 72.8602 23.1401 73.556 22.814C74.2518 22.4879 75.0044 22.3177 75.7996 22.3036C76.5948 22.2894 77.3474 22.4312 78.0574 22.7431C78.7674 23.0409 79.3922 23.4804 79.9318 24.0334C80.4714 24.5864 80.8974 25.2386 81.2098 25.976C81.5222 26.7274 81.6926 27.5215 81.7068 28.4006C81.7068 29.2655 81.579 30.0737 81.2808 30.8394Z" fill="#269CF3"/>
<path d="M119.678 32.8106C119.692 33.8174 119.479 34.7106 119.024 35.5047C118.57 36.2987 117.974 36.9651 117.221 37.5039C116.483 38.0427 115.645 38.4539 114.708 38.7375C113.77 39.0211 112.847 39.1771 111.924 39.1912C110.377 39.2196 108.942 38.9502 107.622 38.4114C106.301 37.8584 105.151 36.9651 104.143 35.7174L107.153 32.5696C107.778 33.3353 108.488 33.9166 109.297 34.342C110.107 34.7674 110.959 34.9659 111.882 34.9517C112.677 34.9375 113.344 34.7815 113.856 34.4838C114.381 34.186 114.637 33.7323 114.622 33.1509C114.608 32.5412 114.225 32.045 113.472 31.648C112.72 31.2509 111.655 30.8681 110.291 30.4853C109.496 30.2584 108.715 29.9748 107.948 29.6345C107.196 29.2801 106.514 28.8547 105.918 28.3301C105.321 27.8196 104.839 27.2241 104.484 26.5435C104.114 25.8771 103.93 25.083 103.916 24.2039C103.901 23.2256 104.114 22.3323 104.555 21.5383C104.995 20.7442 105.591 20.0778 106.315 19.539C107.04 19.0002 107.877 18.5748 108.815 18.2771C109.752 17.9793 110.703 17.8233 111.669 17.8092C114.764 17.7524 117.335 18.8868 119.351 21.1838L116.383 24.289C115.787 23.5801 115.105 23.0129 114.353 22.6017C113.6 22.1905 112.776 21.992 111.882 22.0062C111.584 22.0062 111.257 22.0629 110.916 22.148C110.575 22.233 110.263 22.3606 109.979 22.5166C109.695 22.6726 109.454 22.8711 109.269 23.1263C109.084 23.3815 108.999 23.6509 108.999 23.9629C109.013 24.5017 109.368 24.9696 110.093 25.3524C110.817 25.7353 111.853 26.1181 113.188 26.4868C114.054 26.7278 114.892 27.0398 115.673 27.4226C116.454 27.8054 117.136 28.2592 117.732 28.7696C118.329 29.2801 118.797 29.8756 119.152 30.542C119.479 31.2226 119.663 31.9741 119.678 32.8106Z" fill="#269CF3"/>
<path d="M34.719 39.1912L31.027 32.0449C30.9276 32.0449 30.8424 32.0449 30.7146 32.0449H27.6616L27.6758 39.1912H22.3508L22.3224 17.7949H30.7004C36.2526 17.7949 39.0926 20.9143 39.0926 25.1822C39.0926 27.7487 37.8146 29.677 35.7272 30.8397L40.3848 39.177L34.719 39.1912ZM27.6616 27.6494H30.7146C32.2766 27.6494 33.7108 27.0397 33.6966 25.1964C33.6966 23.6084 32.4754 22.7576 30.7004 22.7576H27.6474L27.6616 27.6494Z" fill="#269CF3"/>
</svg>
